<?xml version="1.0" encoding="utf-8"?>
<!-- Generator: Adobe Illustrator 21.0.0, SVG Export Plug-In . SVG Version: 6.00 Build 0)  -->
<svg version="1.1" id="Layer_1" xmlns="http://www.w3.org/2000/svg" xmlns:xlink="http://www.w3.org/1999/xlink" x="0px" y="0px"
	 viewBox="0 0 17 3.4" style="enable-background:new 0 0 17 3.4;" xml:space="preserve">
<style type="text/css">
	.st0{fill:#333333;}
</style>
<g>
	<path class="st0" d="M0,1.5c0.4,0.4,0.9,1,1.5,1c0.7,0,1-0.5,1.4-0.9C3.7,1,4.5,0,5.9,0s2,1,2.6,1.5c0.4,0.4,0.9,1,1.5,1
		c0.7,0,1-0.5,1.4-0.9C12.2,1,12.9,0,14.4,0s2,1,2.6,1.5v0.7c-0.3-0.4-1.2-1.4-1.9-1.4c-0.7,0-1,0.5-1.4,0.9
		c-0.7,0.6-1.5,1.6-2.9,1.6c-1.5,0-2.1-1-2.6-1.5c-0.3-0.4-0.9-1-1.5-1c-0.7,0-1,0.5-1.4,0.9C4.5,2.4,3.7,3.4,2.2,3.4
		C1.1,3.4,0.4,2.8,0,2.3L0,1.5z"/>
</g>
</svg>
